<mxfile host="app.diagrams.net" agent="Mozilla/5.0 (Windows NT 10.0; Win64; x64) AppleWebKit/537.36 (KHTML, like Gecko) Chrome/126.0.0.0 Safari/537.36 Edg/126.0.0.0" version="24.7.5">
  <diagram name="Página-1" id="l3UohBoxEaSDBaWs7Ra2">
    <mxGraphModel dx="1426" dy="785" grid="1" gridSize="10" guides="1" tooltips="1" connect="1" arrows="1" fold="1" page="1" pageScale="1" pageWidth="827" pageHeight="1169" math="0" shadow="0">
      <root>
        <mxCell id="0" />
        <mxCell id="1" parent="0" />
        <mxCell id="75mYgJ4UwRwPM1Jx1czx-3" value="" style="edgeStyle=orthogonalEdgeStyle;rounded=0;orthogonalLoop=1;jettySize=auto;html=1;" edge="1" parent="1" source="75mYgJ4UwRwPM1Jx1czx-1" target="75mYgJ4UwRwPM1Jx1czx-2">
          <mxGeometry relative="1" as="geometry" />
        </mxCell>
        <mxCell id="75mYgJ4UwRwPM1Jx1czx-1" value="Conferir se a lâmpada está queimada" style="rounded=0;whiteSpace=wrap;html=1;fillColor=#dae8fc;strokeColor=#6c8ebf;" vertex="1" parent="1">
          <mxGeometry x="90" y="70" width="150" height="90" as="geometry" />
        </mxCell>
        <mxCell id="75mYgJ4UwRwPM1Jx1czx-5" value="" style="edgeStyle=orthogonalEdgeStyle;rounded=0;orthogonalLoop=1;jettySize=auto;html=1;" edge="1" parent="1" source="75mYgJ4UwRwPM1Jx1czx-2">
          <mxGeometry relative="1" as="geometry">
            <mxPoint x="500" y="110" as="targetPoint" />
          </mxGeometry>
        </mxCell>
        <mxCell id="75mYgJ4UwRwPM1Jx1czx-9" value="" style="edgeStyle=orthogonalEdgeStyle;rounded=0;orthogonalLoop=1;jettySize=auto;html=1;" edge="1" parent="1" source="75mYgJ4UwRwPM1Jx1czx-2" target="75mYgJ4UwRwPM1Jx1czx-8">
          <mxGeometry relative="1" as="geometry" />
        </mxCell>
        <mxCell id="75mYgJ4UwRwPM1Jx1czx-2" value="Pegar uma escada" style="rounded=0;whiteSpace=wrap;html=1;fillColor=#dae8fc;strokeColor=#6c8ebf;" vertex="1" parent="1">
          <mxGeometry x="290" y="70" width="120" height="60" as="geometry" />
        </mxCell>
        <mxCell id="75mYgJ4UwRwPM1Jx1czx-7" value="" style="edgeStyle=orthogonalEdgeStyle;rounded=0;orthogonalLoop=1;jettySize=auto;html=1;" edge="1" parent="1" target="75mYgJ4UwRwPM1Jx1czx-6">
          <mxGeometry relative="1" as="geometry">
            <mxPoint x="560" y="140" as="sourcePoint" />
          </mxGeometry>
        </mxCell>
        <mxCell id="75mYgJ4UwRwPM1Jx1czx-11" value="" style="edgeStyle=orthogonalEdgeStyle;rounded=0;orthogonalLoop=1;jettySize=auto;html=1;" edge="1" parent="1" source="75mYgJ4UwRwPM1Jx1czx-6" target="75mYgJ4UwRwPM1Jx1czx-10">
          <mxGeometry relative="1" as="geometry" />
        </mxCell>
        <mxCell id="75mYgJ4UwRwPM1Jx1czx-6" value="Subir na escada" style="rounded=0;whiteSpace=wrap;html=1;fillColor=#dae8fc;strokeColor=#6c8ebf;" vertex="1" parent="1">
          <mxGeometry x="490" y="210" width="120" height="60" as="geometry" />
        </mxCell>
        <mxCell id="75mYgJ4UwRwPM1Jx1czx-8" value="Pegar uma lâmpada nova" style="whiteSpace=wrap;html=1;fillColor=#dae8fc;strokeColor=#6c8ebf;rounded=0;" vertex="1" parent="1">
          <mxGeometry x="490" y="70" width="120" height="60" as="geometry" />
        </mxCell>
        <mxCell id="75mYgJ4UwRwPM1Jx1czx-13" value="" style="edgeStyle=orthogonalEdgeStyle;rounded=0;orthogonalLoop=1;jettySize=auto;html=1;" edge="1" parent="1" source="75mYgJ4UwRwPM1Jx1czx-10">
          <mxGeometry relative="1" as="geometry">
            <mxPoint x="210" y="240" as="targetPoint" />
          </mxGeometry>
        </mxCell>
        <mxCell id="75mYgJ4UwRwPM1Jx1czx-15" value="" style="edgeStyle=orthogonalEdgeStyle;rounded=0;orthogonalLoop=1;jettySize=auto;html=1;" edge="1" parent="1" source="75mYgJ4UwRwPM1Jx1czx-10" target="75mYgJ4UwRwPM1Jx1czx-14">
          <mxGeometry relative="1" as="geometry" />
        </mxCell>
        <mxCell id="75mYgJ4UwRwPM1Jx1czx-10" value="Retirar lâmpada queimada" style="whiteSpace=wrap;html=1;fillColor=#dae8fc;strokeColor=#6c8ebf;rounded=0;" vertex="1" parent="1">
          <mxGeometry x="290" y="210" width="120" height="60" as="geometry" />
        </mxCell>
        <mxCell id="75mYgJ4UwRwPM1Jx1czx-17" value="" style="edgeStyle=orthogonalEdgeStyle;rounded=0;orthogonalLoop=1;jettySize=auto;html=1;" edge="1" parent="1" source="75mYgJ4UwRwPM1Jx1czx-14" target="75mYgJ4UwRwPM1Jx1czx-16">
          <mxGeometry relative="1" as="geometry" />
        </mxCell>
        <mxCell id="75mYgJ4UwRwPM1Jx1czx-14" value="Colocar a nova" style="whiteSpace=wrap;html=1;fillColor=#dae8fc;strokeColor=#6c8ebf;rounded=0;" vertex="1" parent="1">
          <mxGeometry x="90" y="210" width="120" height="60" as="geometry" />
        </mxCell>
        <mxCell id="75mYgJ4UwRwPM1Jx1czx-19" value="" style="edgeStyle=orthogonalEdgeStyle;rounded=0;orthogonalLoop=1;jettySize=auto;html=1;" edge="1" parent="1" source="75mYgJ4UwRwPM1Jx1czx-16" target="75mYgJ4UwRwPM1Jx1czx-18">
          <mxGeometry relative="1" as="geometry" />
        </mxCell>
        <mxCell id="75mYgJ4UwRwPM1Jx1czx-16" value="Descer da escada" style="whiteSpace=wrap;html=1;fillColor=#dae8fc;strokeColor=#6c8ebf;rounded=0;" vertex="1" parent="1">
          <mxGeometry x="90" y="350" width="120" height="60" as="geometry" />
        </mxCell>
        <mxCell id="75mYgJ4UwRwPM1Jx1czx-18" value="testar lâmpada nova&amp;nbsp;" style="whiteSpace=wrap;html=1;fillColor=#dae8fc;strokeColor=#6c8ebf;rounded=0;" vertex="1" parent="1">
          <mxGeometry x="290" y="350" width="120" height="60" as="geometry" />
        </mxCell>
      </root>
    </mxGraphModel>
  </diagram>
</mxfile>
